<svg data-v-fde0c5aa="" xmlns="http://www.w3.org/2000/svg" viewBox="0 0 300 300" class="font"><!----><defs data-v-fde0c5aa=""><!----></defs><rect data-v-fde0c5aa="" fill="transparent" x="0" y="0" width="300px" height="300px" class="logo-background-square"></rect><defs data-v-fde0c5aa=""><linearGradient data-v-fde0c5aa="" gradientTransform="rotate(25)" id="f8488336-a205-431d-92ba-8d054fdf1fc9" x1="0%" y1="0%" x2="100%" y2="0%"><stop data-v-fde0c5aa="" offset="0%" stop-color="#D88F9A" stop-opacity="1"></stop><stop data-v-fde0c5aa="" offset="100%" stop-color="#F0EBCB" stop-opacity="1"></stop></linearGradient></defs><g data-v-fde0c5aa="" id="a83d3203-1f35-41b4-875b-0b72a578882e" fill="url(#f8488336-a205-431d-92ba-8d054fdf1fc9)" transform="matrix(4.187285804461845,0,0,4.187285804461845,36.18956980812379,109.00647113572408)"><path d="M0.91 13.78L0.91 2.80L6.70 2.80L6.70 5.38L3.99 5.38L3.99 6.99L6.43 6.99L6.43 9.56L3.99 9.56L3.99 11.19L6.70 11.19L6.70 13.78L0.91 13.78ZM8.13 13.78L8.13 2.80L11.14 2.80L11.14 13.78L8.13 13.78ZM20.46 13.78L17.27 13.78L16.19 10.42L15.61 10.83L15.61 13.78L12.60 13.78L12.60 2.80L15.61 2.80L15.61 8.31L17.26 5.63L20.36 5.63L18.20 8.37L20.46 13.78ZM21.20 13.78L21.20 2.80L24.10 2.80L24.10 6.86L24.22 6.86L24.22 6.86Q24.50 6.19 25.04 5.83L25.04 5.83L25.04 5.83Q25.58 5.48 26.35 5.48L26.35 5.48L26.35 5.48Q27.02 5.48 27.56 5.83L27.56 5.83L27.56 5.83Q28.09 6.19 28.39 6.85L28.39 6.85L28.39 6.85Q28.69 7.50 28.69 8.34L28.69 8.34L28.69 13.78L25.70 13.78L25.70 8.82L25.70 8.82Q25.70 8.33 25.52 8.09L25.52 8.09L25.52 8.09Q25.34 7.85 24.97 7.85L24.97 7.85L24.97 7.85Q24.21 7.85 24.21 8.85L24.21 8.85L24.21 13.78L21.20 13.78ZM32.85 5.48L32.85 5.48Q34.48 5.48 35.36 6.20L35.36 6.20L35.36 6.20Q36.24 6.93 36.24 8.57L36.24 8.57L36.24 13.78L33.66 13.78L33.53 12.70L33.39 12.70L33.39 12.70Q33.20 13.46 32.68 13.71L32.68 13.71L32.68 13.71Q32.15 13.96 31.60 13.96L31.60 13.96L31.60 13.96Q30.95 13.96 30.48 13.70L30.48 13.70L30.48 13.70Q30.00 13.43 29.75 12.94L29.75 12.94L29.75 12.94Q29.49 12.44 29.49 11.76L29.49 11.76L29.49 11.76Q29.49 10.98 29.82 10.41L29.82 10.41L29.82 10.41Q30.15 9.85 30.78 9.45L30.78 9.45L30.78 9.45Q31.26 9.15 31.92 8.94L31.92 8.94L31.92 8.94Q32.59 8.73 33.46 8.54L33.46 8.54L33.46 8.54Q33.50 8.35 33.50 8.18L33.50 8.18L33.50 8.18Q33.50 7.46 32.74 7.46L32.74 7.46L32.74 7.46Q32.31 7.46 32.08 7.79L32.08 7.79L32.08 7.79Q31.86 8.11 31.83 8.57L31.83 8.57L29.59 7.81L29.59 7.81Q29.71 7.04 30.16 6.52L30.16 6.52L30.16 6.52Q30.62 6.00 31.31 5.74L31.31 5.74L31.31 5.74Q32.00 5.48 32.85 5.48L32.85 5.48ZM32.74 11.98L32.74 11.98Q32.93 11.98 33.09 11.85L33.09 11.85L33.09 11.85Q33.25 11.72 33.37 11.50L33.37 11.50L33.37 10.33L33.37 10.33Q33.12 10.41 32.83 10.58L32.83 10.58L32.83 10.58Q32.21 10.96 32.21 11.41L32.21 11.41L32.21 11.41Q32.21 11.66 32.37 11.82L32.37 11.82L32.37 11.82Q32.53 11.98 32.74 11.98L32.74 11.98ZM37.53 13.78L37.53 2.80L40.54 2.80L40.54 13.78L37.53 13.78ZM42.02 4.76L42.02 2.80L44.99 2.80L44.99 4.76L42.02 4.76ZM41.99 13.78L41.99 5.63L44.99 5.63L44.99 13.78L41.99 13.78ZM50.93 5.63L53.45 5.63L53.45 13.02L53.45 13.02Q53.45 14.49 52.83 15.32L52.83 15.32L52.83 15.32Q52.22 16.15 51.33 16.46L51.33 16.46L51.33 16.46Q50.44 16.78 49.49 16.78L49.49 16.78L49.49 16.78Q48.75 16.78 47.88 16.56L47.88 16.56L47.88 16.56Q47.00 16.34 46.14 15.71L46.14 15.71L47.26 13.79L47.26 13.79Q47.71 14.20 48.11 14.38L48.11 14.38L48.11 14.38Q48.51 14.57 48.76 14.59L48.76 14.59L48.76 14.59Q49.01 14.62 49.34 14.62L49.34 14.62L49.34 14.62Q49.57 14.62 49.85 14.49L49.85 14.49L49.85 14.49Q50.13 14.35 50.33 14.02L50.33 14.02L50.33 14.02Q50.54 13.70 50.54 13.18L50.54 13.18L50.54 12.21L50.54 12.21Q50.37 12.56 50.19 12.81L50.19 12.81L50.19 12.81Q50.00 13.06 49.64 13.25L49.64 13.25L49.64 13.25Q49.27 13.43 48.69 13.43L48.69 13.43L48.69 13.43Q47.93 13.43 47.31 12.99L47.31 12.99L47.31 12.99Q46.70 12.55 46.33 11.66L46.33 11.66L46.33 11.66Q45.97 10.76 45.97 9.44L45.97 9.44L45.97 9.44Q45.97 8.18 46.34 7.28L46.34 7.28L46.34 7.28Q46.72 6.38 47.34 5.93L47.34 5.93L47.34 5.93Q47.95 5.48 48.69 5.48L48.69 5.48L48.69 5.48Q49.20 5.48 49.63 5.66L49.63 5.66L49.63 5.66Q50.05 5.84 50.31 6.14L50.31 6.14L50.31 6.14Q50.57 6.43 50.61 6.72L50.61 6.72L50.78 6.72L50.93 5.63ZM49.85 11.14L49.85 11.14Q50.29 11.14 50.52 10.73L50.52 10.73L50.52 10.73Q50.74 10.32 50.74 9.50L50.74 9.50L50.74 9.50Q50.74 8.69 50.52 8.27L50.52 8.27L50.52 8.27Q50.29 7.86 49.85 7.86L49.85 7.86L49.85 7.86Q49.42 7.86 49.22 8.27L49.22 8.27L49.22 8.27Q49.01 8.67 49.01 9.50L49.01 9.50L49.01 9.50Q49.01 10.34 49.22 10.74L49.22 10.74L49.22 10.74Q49.42 11.14 49.85 11.14L49.85 11.14Z"></path></g><!----><!----></svg>