<svg data-v-fde0c5aa="" xmlns="http://www.w3.org/2000/svg" viewBox="0 0 300 300" class="iconAboveSlogan"><!----><defs data-v-fde0c5aa=""><!----></defs><rect data-v-fde0c5aa="" fill="transparent" x="0" y="0" width="300px" height="300px" class="logo-background-square"></rect><defs data-v-fde0c5aa=""><!----></defs><g data-v-fde0c5aa="" id="aad6ffc7-4b38-4a16-82c2-f91a34ace614" fill="#000000" transform="matrix(4.208501751295315,0,0,4.208501751295315,35.61292036292177,146.7609130265104)"><path d="M0.91 13.78L0.91 2.80L6.70 2.80L6.70 5.38L3.99 5.38L3.99 6.99L6.43 6.99L6.43 9.56L3.99 9.56L3.99 11.19L6.70 11.19L6.70 13.78L0.91 13.78ZM8.13 13.78L8.13 2.80L11.14 2.80L11.14 13.78L8.13 13.78ZM20.46 13.78L17.27 13.78L16.19 10.42L15.61 10.83L15.61 13.78L12.60 13.78L12.60 2.80L15.61 2.80L15.61 8.31L17.26 5.63L20.36 5.63L18.20 8.37L20.46 13.78ZM21.20 13.78L21.20 2.80L24.10 2.80L24.10 6.86L24.22 6.86L24.22 6.86Q24.50 6.19 25.04 5.83L25.04 5.83L25.04 5.83Q25.58 5.48 26.35 5.48L26.35 5.48L26.35 5.48Q27.02 5.48 27.56 5.83L27.56 5.83L27.56 5.83Q28.09 6.19 28.39 6.85L28.39 6.85L28.39 6.85Q28.69 7.50 28.69 8.34L28.69 8.34L28.69 13.78L25.70 13.78L25.70 8.82L25.70 8.82Q25.70 8.33 25.52 8.09L25.52 8.09L25.52 8.09Q25.34 7.85 24.97 7.85L24.97 7.85L24.97 7.85Q24.21 7.85 24.21 8.85L24.21 8.85L24.21 13.78L21.20 13.78ZM32.85 5.48L32.85 5.48Q34.48 5.48 35.36 6.20L35.36 6.20L35.36 6.20Q36.24 6.93 36.24 8.57L36.24 8.57L36.24 13.78L33.66 13.78L33.53 12.70L33.39 12.70L33.39 12.70Q33.20 13.46 32.68 13.71L32.68 13.71L32.68 13.71Q32.15 13.96 31.60 13.96L31.60 13.96L31.60 13.96Q30.95 13.96 30.48 13.70L30.48 13.70L30.48 13.70Q30.00 13.43 29.75 12.94L29.75 12.94L29.75 12.94Q29.49 12.44 29.49 11.76L29.49 11.76L29.49 11.76Q29.49 10.98 29.82 10.41L29.82 10.41L29.82 10.41Q30.15 9.85 30.78 9.45L30.78 9.45L30.78 9.45Q31.26 9.15 31.92 8.94L31.92 8.94L31.92 8.94Q32.59 8.73 33.46 8.54L33.46 8.54L33.46 8.54Q33.50 8.35 33.50 8.18L33.50 8.18L33.50 8.18Q33.50 7.46 32.74 7.46L32.74 7.46L32.74 7.46Q32.31 7.46 32.08 7.79L32.08 7.79L32.08 7.79Q31.86 8.11 31.83 8.57L31.83 8.57L29.59 7.81L29.59 7.81Q29.71 7.04 30.16 6.52L30.16 6.52L30.16 6.52Q30.62 6.00 31.31 5.74L31.31 5.74L31.31 5.74Q32.00 5.48 32.85 5.48L32.85 5.48ZM32.74 11.98L32.74 11.98Q32.93 11.98 33.09 11.85L33.09 11.85L33.09 11.85Q33.25 11.72 33.37 11.50L33.37 11.50L33.37 10.33L33.37 10.33Q33.12 10.41 32.83 10.58L32.83 10.58L32.83 10.58Q32.21 10.96 32.21 11.41L32.21 11.41L32.21 11.41Q32.21 11.66 32.37 11.82L32.37 11.82L32.37 11.82Q32.53 11.98 32.74 11.98L32.74 11.98ZM37.53 13.78L37.53 2.80L40.54 2.80L40.54 13.78L37.53 13.78ZM42.02 4.76L42.02 2.80L44.99 2.80L44.99 4.76L42.02 4.76ZM41.99 13.78L41.99 5.63L44.99 5.63L44.99 13.78L41.99 13.78ZM50.93 5.63L53.45 5.63L53.45 13.02L53.45 13.02Q53.45 14.49 52.83 15.32L52.83 15.32L52.83 15.32Q52.22 16.15 51.33 16.46L51.33 16.46L51.33 16.46Q50.44 16.78 49.49 16.78L49.49 16.78L49.49 16.78Q48.75 16.78 47.88 16.56L47.88 16.56L47.88 16.56Q47.00 16.34 46.14 15.71L46.14 15.71L47.26 13.79L47.26 13.79Q47.71 14.20 48.11 14.38L48.11 14.38L48.11 14.38Q48.51 14.57 48.76 14.59L48.76 14.59L48.76 14.59Q49.01 14.62 49.34 14.62L49.34 14.62L49.34 14.62Q49.57 14.62 49.85 14.49L49.85 14.49L49.85 14.49Q50.13 14.35 50.33 14.02L50.33 14.02L50.33 14.02Q50.54 13.70 50.54 13.18L50.54 13.18L50.54 12.21L50.54 12.21Q50.37 12.56 50.19 12.81L50.19 12.81L50.19 12.81Q50.00 13.06 49.64 13.25L49.64 13.25L49.64 13.25Q49.27 13.43 48.69 13.43L48.69 13.43L48.69 13.43Q47.93 13.43 47.31 12.99L47.31 12.99L47.31 12.99Q46.70 12.55 46.33 11.66L46.33 11.66L46.33 11.66Q45.97 10.76 45.97 9.44L45.97 9.44L45.97 9.44Q45.97 8.18 46.34 7.28L46.34 7.28L46.34 7.28Q46.72 6.38 47.34 5.93L47.34 5.93L47.34 5.93Q47.95 5.48 48.69 5.48L48.69 5.48L48.69 5.48Q49.20 5.48 49.63 5.66L49.63 5.66L49.63 5.66Q50.05 5.84 50.31 6.14L50.31 6.14L50.31 6.14Q50.57 6.43 50.61 6.72L50.61 6.72L50.78 6.72L50.93 5.63ZM49.85 11.14L49.85 11.14Q50.29 11.14 50.52 10.73L50.52 10.73L50.52 10.73Q50.74 10.32 50.74 9.50L50.74 9.50L50.74 9.50Q50.74 8.69 50.52 8.27L50.52 8.27L50.52 8.27Q50.29 7.86 49.85 7.86L49.85 7.86L49.85 7.86Q49.42 7.86 49.22 8.27L49.22 8.27L49.22 8.27Q49.01 8.67 49.01 9.50L49.01 9.50L49.01 9.50Q49.01 10.34 49.22 10.74L49.22 10.74L49.22 10.74Q49.42 11.14 49.85 11.14L49.85 11.14Z"></path></g><defs data-v-fde0c5aa=""><linearGradient data-v-fde0c5aa="" gradientTransform="rotate(25)" id="cea1ed79-a7b2-48ed-941b-88ce85d760b9" x1="0%" y1="0%" x2="100%" y2="0%"><stop data-v-fde0c5aa="" offset="0%" stop-color="#D88F9A" stop-opacity="1"></stop><stop data-v-fde0c5aa="" offset="100%" stop-color="#F0EBCB" stop-opacity="1"></stop></linearGradient></defs><g data-v-fde0c5aa="" id="a328c576-e90b-4592-9c15-b2adc7060d1d" stroke="none" fill="url(#cea1ed79-a7b2-48ed-941b-88ce85d760b9)" transform="matrix(2.5999635014889315,0,0,2.5999635014889315,19.998728162023024,-43.04283261620749)"><path d="M20.784 47.299c8.095-3.358 16.643-5.959 25.455-6.288 2.21-.053 4.455.066 6.587.687 4.875 2.379 9.941 4.362 14.933 6.489 3.612 1.195 7.462.763 11.198.982 2.277.105 4.557.283 6.809.665 1.764.309 3.414 1.072 4.924 2.016 2.961.869 5.765 2.236 8.334 3.943.431.287.892.652.975 1.197.068.955-1.079 1.326-1.273 2.184-.179.516.666.605.551 1.105-.153.682-.926.934-1.496 1.182-3.66 1.242-7.565 1.426-11.389 1.729.018-2.199-.275-4.463-1.248-6.459-1.188-1.992-3.222-3.555-5.553-3.895-3.001-.471-6.434.213-8.463 2.629-2.047 2.371-2.327 5.688-2.145 8.682-12.065.504-24.138 1.285-36.205 1.793.04-1.446.14-2.934-.268-4.342-.533-1.975-1.75-3.82-3.544-4.854-2.171-1.3-4.893-1.369-7.272-.66-1.84.56-3.454 1.845-4.342 3.56-1.219 2.176-1.125 4.748-1.215 7.16-3.443.036-6.877-.201-10.303-.511-1.555-.623-3.079-1.375-4.454-2.334-.592-.623-.676-1.562-.967-2.345-.217-.979-.726-2.071-.14-3.02 1.474-2.678 4.234-4.24 6.691-5.891-.597-.057-1.336-.143-1.798-.52l.031-.236c.715-.109 1.46.117 2.158-.094-.54-.984-1.399-1.84-2.167-2.681-.544-.204-1.178-.18-1.669-.538.011-.079.035-.239.048-.318 1.489-.32 3.024-.349 4.54-.456 1.02-.059 2.096-.173 3.077.18.077.638-.857.504-.888 1.02.443.555.954 1.068 1.546 1.464.765-.199 1.493-.543 2.278-.687 2.287-.659 4.453-1.663 6.664-2.538zm21.428-4.817c-2.044.259-4.108.546-6.097 1.079a154.655 154.655 0 0 0 2.618 6.689c7.7-.151 15.408-.489 23.1-.897l-.054-.193c-2.805-1.647-5.523-3.45-8.401-4.97-1.625-.807-3.285-1.678-5.121-1.847-2.012-.209-4.034.034-6.045.139zm-17.009 4.632c-1.535.693-3.185 1.254-4.487 2.353-.337.516.393.713.75.792 2.323.406 4.693.294 7.04.322 2.645-.033 5.292-.058 7.937-.147-.77-2.131-1.669-4.222-2.491-6.335-2.994.755-5.896 1.846-8.749 3.015z"></path><path d="M76.077 53.523c1.86-.408 3.891-.066 5.489.975 1.875 1.139 3.139 3.203 3.347 5.383a7.225 7.225 0 0 1-1.66 5.375c-1.653 2-4.423 2.969-6.967 2.482-3.173-.518-5.781-3.35-5.976-6.568-.358-3.529 2.292-7.004 5.767-7.647zM22.917 56.285c1.713-.381 3.566-.17 5.119.666 1.875.969 3.29 2.793 3.722 4.863.408 1.879.046 3.916-1.028 5.516-1.202 1.855-3.298 3.072-5.496 3.25-2.219.213-4.509-.662-6.026-2.297-1.667-1.744-2.322-4.357-1.73-6.691.63-2.613 2.832-4.709 5.439-5.307z"></path></g><defs data-v-fde0c5aa=""><!----></defs><g data-v-fde0c5aa="" id="629e280b-ab25-4ad3-9784-8a10809c3b6b" fill="#000000" transform="matrix(0.9074474112149971,0,0,0.9074474112149971,66.61012016370603,224.74797672054518)"><path d="M0.52 12.39C0.52 12.63 0.55 12.68 0.74 12.68C1.06 12.68 2.03 12.64 2.45 12.64C2.87 12.64 7.38 12.68 7.70 12.68C7.83 12.68 7.98 12.66 7.98 12.49C7.98 12.07 8.02 11.23 8.02 10.53C8.02 10.39 7.87 10.39 7.74 10.39C7.63 10.39 7.50 10.39 7.50 10.51C7.49 11.06 7.49 11.41 7.46 11.76C7.43 12.01 7.43 12.04 7.34 12.04C7.18 12.04 4.55 12.08 3.05 12.08C2.98 12.08 2.94 10.11 2.90 8.26C2.90 8.06 2.94 8.09 3.08 8.09L5.36 8.09C6.06 8.09 6.09 8.20 6.09 8.30L6.09 9.00C6.09 9.14 6.27 9.14 6.38 9.14C6.48 9.14 6.61 9.13 6.61 9.02C6.61 8.83 6.58 8.33 6.58 7.83C6.58 7.32 6.61 6.83 6.61 6.71C6.61 6.59 6.47 6.58 6.37 6.58C6.26 6.58 6.09 6.59 6.09 6.72L6.09 7.45C6.09 7.62 5.64 7.63 5.36 7.63L3.02 7.63C2.91 7.63 2.90 7.63 2.90 7.45C2.88 6.75 2.87 6.06 2.87 5.46C2.87 5.12 2.87 3.71 2.95 3.71C4.19 3.71 6.69 3.75 6.69 3.81C6.69 3.99 6.65 4.83 6.65 4.89C6.65 5.04 6.72 5.10 6.90 5.10C7.10 5.10 7.17 5.08 7.17 4.94C7.17 3.85 7.22 3.36 7.22 3.09C7.22 2.91 7.14 2.90 6.94 2.90C6.75 2.90 6.75 2.95 6.72 3.11C6.71 3.25 6.78 3.25 5.87 3.25C5.25 3.25 3.11 3.29 2.34 3.29C1.85 3.29 0.91 3.25 0.81 3.25C0.69 3.25 0.63 3.30 0.63 3.49C0.63 3.72 0.70 3.74 0.87 3.74L1.53 3.74C1.58 3.74 1.65 4.79 1.65 5.71C1.65 5.80 1.71 8.27 1.71 9.83L1.71 11.17C1.71 11.84 1.68 12.18 1.65 12.18L0.80 12.18C0.57 12.18 0.52 12.21 0.52 12.39ZM15.99 12.39C15.99 12.63 16.02 12.68 16.21 12.68C16.53 12.68 17.50 12.64 17.92 12.64C18.34 12.64 22.69 12.68 23.02 12.68C23.28 12.68 23.35 12.66 23.37 12.49C23.42 12.08 23.66 10.72 23.66 10.60C23.66 10.47 23.51 10.44 23.34 10.43C23.24 10.42 23.16 10.46 23.14 10.56L22.97 11.76C22.93 12.05 22.92 12.03 22.69 12.04C22.54 12.05 20.03 12.12 18.61 12.12C18.56 12.12 18.52 11.38 18.52 10.54L18.52 6.66C18.52 5.40 18.54 3.70 18.63 3.70L19.61 3.70C19.85 3.70 19.88 3.63 19.88 3.44C19.88 3.23 19.87 3.19 19.63 3.19C19.31 3.19 18.37 3.23 17.95 3.23C17.53 3.23 16.59 3.19 16.37 3.19C16.14 3.19 16.09 3.22 16.09 3.44C16.09 3.65 16.13 3.70 16.32 3.70L17.15 3.70C17.19 3.70 17.22 4.23 17.22 4.90L17.22 8.13C17.22 10.07 17.19 12.18 17.11 12.18L16.27 12.18C16.04 12.18 15.99 12.21 15.99 12.39ZM31.28 12.39C31.28 12.63 31.29 12.68 31.49 12.68C31.81 12.68 32.70 12.64 33.12 12.64C33.54 12.64 34.50 12.68 34.82 12.68C34.99 12.68 35 12.61 35 12.40C35 12.24 34.97 12.18 34.80 12.18L33.80 12.18C33.70 12.18 33.67 10.12 33.67 8.46C33.67 8.30 33.67 8.30 33.84 8.30L34.10 8.30C34.31 8.30 34.31 8.32 34.38 8.40L37.42 12.00C37.52 12.11 37.59 12.18 37.38 12.18L36.92 12.18C36.74 12.18 36.67 12.19 36.67 12.39C36.67 12.63 36.67 12.68 36.86 12.68C37.18 12.68 37.88 12.64 38.30 12.64C38.72 12.64 39.41 12.68 39.73 12.68C39.90 12.68 39.90 12.61 39.90 12.40C39.90 12.24 39.90 12.18 39.73 12.18L39.51 12.18C39.33 12.18 39.23 12.10 39.10 11.96L35.34 7.62C35.20 7.45 35.17 7.50 35.29 7.36C35.74 6.83 38.28 3.77 38.35 3.77L39.02 3.77C39.24 3.77 39.27 3.75 39.27 3.56C39.27 3.32 39.27 3.26 39.07 3.26C38.88 3.26 38.43 3.30 37.91 3.30C37.38 3.30 36.90 3.26 36.68 3.26C36.50 3.26 36.40 3.28 36.40 3.51C36.40 3.75 36.51 3.77 36.68 3.77L37.24 3.77C37.41 3.77 37.41 3.84 37.30 3.99C36.76 4.66 34.41 7.92 34.12 7.92L33.81 7.92C33.67 7.92 33.67 7.88 33.67 7.69L33.67 5.94C33.67 5.21 33.74 3.77 33.84 3.77L34.61 3.77C34.83 3.77 34.87 3.75 34.87 3.56C34.87 3.32 34.86 3.26 34.66 3.26C34.34 3.26 33.57 3.30 33.15 3.30C32.56 3.30 31.91 3.26 31.68 3.26C31.50 3.26 31.40 3.28 31.40 3.51C31.40 3.75 31.51 3.77 31.68 3.77L32.33 3.77C32.38 3.77 32.41 4.86 32.41 5.78L32.41 9.84C32.41 11.00 32.40 12.18 32.31 12.18L31.57 12.18C31.35 12.18 31.28 12.19 31.28 12.39ZM47.38 12.39C47.38 12.63 47.38 12.68 47.57 12.68C47.89 12.68 48.83 12.64 49.25 12.64C49.67 12.64 50.50 12.68 50.82 12.68C50.99 12.68 50.99 12.61 50.99 12.40C50.99 12.24 50.99 12.18 50.82 12.18L49.90 12.18C49.81 12.18 49.77 9.93 49.77 8.20C49.77 8.01 49.77 8.01 49.90 8.01L55.13 8.01C55.20 8.01 55.22 8.01 55.22 8.18L55.22 9.91C55.22 11.05 55.20 12.18 55.15 12.18L54.38 12.18C54.15 12.18 54.11 12.19 54.11 12.39C54.11 12.63 54.12 12.68 54.32 12.68C54.64 12.68 55.48 12.64 55.90 12.64C56.32 12.64 56.91 12.68 57.23 12.68C57.40 12.68 57.41 12.61 57.41 12.40C57.41 12.24 57.40 12.18 57.23 12.18L56.49 12.18C56.45 12.18 56.43 9.27 56.43 7.04C56.43 5.40 56.43 3.70 56.48 3.70L57.09 3.70C57.32 3.70 57.36 3.68 57.36 3.49C57.36 3.25 57.34 3.19 57.15 3.19C57.01 3.19 56.38 3.23 55.79 3.23C55.12 3.23 54.52 3.19 54.29 3.19C54.10 3.19 54.07 3.22 54.07 3.44C54.07 3.67 54.14 3.70 54.31 3.70L55.10 3.70C55.16 3.70 55.22 4.79 55.22 5.71L55.22 7.42C55.22 7.59 55.22 7.59 55.05 7.59L49.94 7.59C49.77 7.59 49.77 7.59 49.77 7.38C49.77 6.96 49.76 6.23 49.76 5.53C49.76 4.66 49.77 3.70 49.83 3.70L50.60 3.70C50.82 3.70 50.86 3.68 50.86 3.49C50.86 3.25 50.85 3.19 50.65 3.19C50.33 3.19 49.74 3.23 49.14 3.23C48.55 3.23 48.06 3.19 47.84 3.19C47.66 3.19 47.56 3.21 47.56 3.44C47.56 3.68 47.67 3.70 47.84 3.70L48.45 3.70C48.51 3.70 48.52 5.59 48.52 7.18L48.52 8.61C48.52 10.08 48.51 12.18 48.44 12.18L47.63 12.18C47.40 12.18 47.38 12.19 47.38 12.39ZM65.31 12.39C65.31 12.63 65.31 12.68 65.51 12.68C65.67 12.68 66.00 12.64 66.57 12.64C67.19 12.64 67.73 12.68 67.89 12.68C68.05 12.68 68.05 12.61 68.05 12.40C68.05 12.24 68.05 12.18 67.89 12.18L66.81 12.18C66.81 12.18 66.79 12.18 66.79 12.17C66.81 11.87 67.58 9.90 67.93 9.02C68.00 8.83 68.01 8.79 68.22 8.79L71.05 8.79C71.19 8.79 71.19 8.81 71.26 9.03C71.53 9.77 72.24 11.89 72.24 12.17C72.24 12.18 72.23 12.18 72.23 12.18L71.46 12.18C71.23 12.18 71.22 12.19 71.22 12.39C71.22 12.63 71.23 12.68 71.40 12.68C71.72 12.68 72.59 12.64 73.01 12.64C73.43 12.64 74.10 12.68 74.31 12.68C74.45 12.68 74.47 12.61 74.47 12.40C74.47 12.24 74.45 12.18 74.31 12.18L73.82 12.18C73.72 12.18 72.70 9.34 72.14 7.78L70.46 3.07C70.45 3.00 70.38 2.94 70.29 2.94C70.17 2.94 70.07 3.16 69.99 3.35C69.83 3.71 69.59 3.84 69.48 4.13L68.00 7.57C67.82 8.01 66.11 12.18 65.98 12.18L65.56 12.18C65.34 12.18 65.31 12.19 65.31 12.39ZM68.21 8.33C68.21 8.30 68.24 8.23 68.28 8.13L69.65 4.77C69.69 4.66 69.72 4.61 69.75 4.61C69.76 4.61 69.78 4.63 69.82 4.77L70.98 8.18C71.01 8.25 71.02 8.29 71.02 8.32C71.02 8.36 70.99 8.37 70.90 8.37L68.39 8.37C68.21 8.37 68.21 8.34 68.21 8.33ZM82.22 12.39C82.22 12.63 82.25 12.68 82.45 12.68C82.77 12.68 83.73 12.64 84.15 12.64C84.57 12.64 88.93 12.68 89.25 12.68C89.52 12.68 89.59 12.66 89.60 12.49C89.66 12.08 89.89 10.72 89.89 10.60C89.89 10.47 89.74 10.44 89.57 10.43C89.47 10.42 89.39 10.46 89.38 10.56L89.21 11.76C89.17 12.05 89.15 12.03 88.93 12.04C88.77 12.05 86.27 12.12 84.84 12.12C84.80 12.12 84.76 11.38 84.76 10.54L84.76 6.66C84.76 5.40 84.77 3.70 84.87 3.70L85.85 3.70C86.09 3.70 86.11 3.63 86.11 3.44C86.11 3.23 86.10 3.19 85.86 3.19C85.54 3.19 84.60 3.23 84.18 3.23C83.76 3.23 82.82 3.19 82.60 3.19C82.38 3.19 82.32 3.22 82.32 3.44C82.32 3.65 82.36 3.70 82.56 3.70L83.38 3.70C83.43 3.70 83.45 4.23 83.45 4.90L83.45 8.13C83.45 10.07 83.43 12.18 83.34 12.18L82.50 12.18C82.28 12.18 82.22 12.21 82.22 12.39ZM97.37 12.39C97.37 12.63 97.41 12.68 97.61 12.68C97.93 12.68 98.69 12.64 99.40 12.64C100.06 12.64 100.86 12.68 101.08 12.68C101.25 12.68 101.28 12.61 101.28 12.40C101.28 12.24 101.25 12.18 101.08 12.18L100.11 12.18C100.02 12.18 99.99 9.55 99.99 7.76L99.99 5.87C99.99 5.14 100.02 3.70 100.11 3.70L101.02 3.70C101.25 3.70 101.28 3.68 101.28 3.49C101.28 3.25 101.25 3.19 101.08 3.19C100.76 3.19 100.09 3.23 99.43 3.23C98.62 3.23 97.90 3.19 97.68 3.19C97.50 3.19 97.43 3.21 97.43 3.44C97.43 3.68 97.51 3.70 97.68 3.70L98.60 3.70C98.64 3.70 98.71 4.79 98.71 5.71L98.71 7.08C98.71 8.92 98.70 12.18 98.59 12.18L97.66 12.18C97.44 12.18 97.37 12.19 97.37 12.39ZM109.24 7.91C109.24 11.40 111.61 12.89 114.20 12.89C116.09 12.89 118.09 11.89 118.09 11.58C118.09 11.12 118.10 10.68 118.10 10.33C118.10 9.81 118.12 9.56 118.24 9.56L118.68 9.56C118.82 9.56 118.83 9.39 118.83 9.30C118.83 9.18 118.82 9.06 118.68 9.06C118.45 9.06 118.09 9.10 117.42 9.10C116.97 9.10 116.23 9.07 115.54 9.06C115.40 9.06 115.40 9.24 115.40 9.35C115.40 9.45 115.43 9.56 115.56 9.56L116.77 9.56C116.82 9.56 116.87 9.87 116.87 10.33C116.87 10.82 116.86 11.41 116.83 11.65C116.82 11.76 116.17 12.39 114.59 12.39C112.35 12.39 110.75 10.29 110.75 7.94C110.75 5.42 112.31 3.54 114.31 3.54C116.20 3.54 117.38 4.87 117.38 5.03C117.38 5.15 117.32 6.12 117.32 6.17C117.32 6.31 117.36 6.36 117.63 6.36C117.82 6.36 117.89 6.33 117.89 6.15C117.89 5.43 117.94 3.75 117.94 3.56C117.94 3.36 117.84 3.33 117.63 3.33C117.40 3.33 117.38 3.39 117.38 3.56L117.38 3.91C117.38 3.99 117.33 4.02 117.21 3.92C116.93 3.72 115.93 3.08 114.37 3.08C111.52 3.08 109.24 4.79 109.24 7.91ZM126.94 7.91C126.94 11.31 129.30 12.87 131.89 12.87C133.67 12.87 135.45 11.90 135.49 11.59C135.66 10.29 135.72 9.70 135.72 9.66C135.72 9.56 135.67 9.52 135.51 9.51C135.45 9.51 135.39 9.49 135.35 9.49C135.24 9.49 135.18 9.53 135.16 9.70L134.97 11.33C134.96 11.45 133.85 12.24 132.29 12.24C130.16 12.24 128.45 10.29 128.45 7.94C128.45 5.42 129.88 3.54 131.88 3.54C133.73 3.54 135.07 5.01 135.07 5.17C135.07 5.29 135.02 6.40 135.02 6.45C135.02 6.59 135.06 6.64 135.32 6.64C135.52 6.64 135.59 6.62 135.59 6.44C135.59 5.73 135.65 3.92 135.65 3.67C135.65 3.47 135.53 3.44 135.32 3.44C135.10 3.44 135.07 3.50 135.07 3.67L135.07 4.05C135.07 4.16 135.03 4.16 134.90 4.06C134.62 3.86 133.64 3.04 131.98 3.04C129.14 3.04 126.94 4.96 126.94 7.91ZM143.96 12.39C143.96 12.63 143.96 12.68 144.16 12.68C144.33 12.68 144.65 12.64 145.22 12.64C145.84 12.64 146.38 12.68 146.54 12.68C146.71 12.68 146.71 12.61 146.71 12.40C146.71 12.24 146.71 12.18 146.54 12.18L145.46 12.18C145.46 12.18 145.45 12.18 145.45 12.17C145.46 11.87 146.23 9.90 146.58 9.02C146.65 8.83 146.66 8.79 146.87 8.79L149.70 8.79C149.84 8.79 149.84 8.81 149.91 9.03C150.18 9.77 150.89 11.89 150.89 12.17C150.89 12.18 150.88 12.18 150.88 12.18L150.11 12.18C149.88 12.18 149.87 12.19 149.87 12.39C149.87 12.63 149.88 12.68 150.05 12.68C150.37 12.68 151.24 12.64 151.66 12.64C152.08 12.64 152.75 12.68 152.96 12.68C153.10 12.68 153.12 12.61 153.12 12.40C153.12 12.24 153.10 12.18 152.96 12.18L152.47 12.18C152.38 12.18 151.35 9.34 150.79 7.78L149.11 3.07C149.10 3.00 149.03 2.94 148.95 2.94C148.82 2.94 148.72 3.16 148.64 3.35C148.48 3.71 148.25 3.84 148.13 4.13L146.65 7.57C146.47 8.01 144.76 12.18 144.63 12.18L144.21 12.18C143.99 12.18 143.96 12.19 143.96 12.39ZM146.86 8.33C146.86 8.30 146.89 8.23 146.93 8.13L148.30 4.77C148.34 4.66 148.37 4.61 148.40 4.61C148.41 4.61 148.43 4.63 148.47 4.77L149.63 8.18C149.66 8.25 149.67 8.29 149.67 8.32C149.67 8.36 149.65 8.37 149.55 8.37L147.04 8.37C146.86 8.37 146.86 8.34 146.86 8.33ZM160.87 3.51C160.87 3.72 160.94 3.79 161.14 3.79L161.95 3.77C162.05 3.77 162.09 6.61 162.09 8.55L162.09 10.42C162.09 11.30 162.08 12.18 162.04 12.18L161.43 12.18C161.21 12.18 161.14 12.19 161.14 12.39C161.14 12.63 161.18 12.68 161.38 12.68C161.50 12.68 162.33 12.64 162.75 12.64C163.17 12.64 163.94 12.68 164.26 12.68C164.43 12.68 164.46 12.61 164.46 12.40C164.46 12.24 164.43 12.18 164.26 12.18L163.45 12.18C163.38 12.18 163.30 9.18 163.30 8.37C163.30 8.30 163.30 8.26 163.41 8.26C163.80 8.26 164.40 8.27 164.70 8.27C166.94 8.32 167.08 10.00 167.08 11.68L167.08 12.49C167.08 12.61 167.13 12.64 167.23 12.64C167.23 12.64 168.67 12.68 169.15 12.68C169.32 12.68 169.37 12.64 169.37 12.53C169.37 12.24 169.32 12.18 169.16 12.18L168.52 12.18C168.42 12.18 168.39 12.14 168.36 11.31C168.28 8.99 166.91 8.34 166.00 8.05C165.86 8.01 165.89 8.01 166.00 7.95C166.59 7.69 167.90 6.94 167.90 5.63C167.90 3.63 166.21 3.21 164.81 3.21C164.49 3.21 163.20 3.29 162.78 3.29C162.36 3.29 161.38 3.26 161.15 3.26C160.97 3.26 160.87 3.28 160.87 3.51ZM163.30 7.80L163.30 4.40C163.30 4.05 163.32 3.68 163.37 3.68C163.58 3.65 163.86 3.65 164.08 3.65C165.38 3.65 166.63 4.47 166.63 5.82C166.63 6.99 166.08 7.57 165.42 7.88C165.38 7.90 165.34 7.90 165.27 7.90C164.79 7.88 164.08 7.88 163.48 7.87C163.31 7.87 163.30 7.85 163.30 7.80ZM177.06 5.77C177.06 9.07 182.04 8.20 182.04 10.65C182.04 11.59 181.20 12.31 180.22 12.31C179.40 12.31 177.80 11.83 177.77 11.47L177.69 10.15C177.67 9.97 177.60 9.91 177.42 9.91L177.35 9.91C177.14 9.91 177.14 10.00 177.14 10.12C177.14 10.32 177.25 11.66 177.28 12.17C177.30 12.38 178.56 12.85 180.10 12.85C181.66 12.85 183.27 11.87 183.27 10.11C183.27 6.79 178.30 7.87 178.30 5.32C178.30 4.31 179.09 3.56 180.12 3.56C181.15 3.56 182.24 4.58 182.24 4.89C182.24 5.01 182.20 5.73 182.20 5.78C182.20 5.92 182.24 5.99 182.50 5.99C182.74 5.99 182.76 5.94 182.76 5.75C182.76 5.04 182.84 3.68 182.84 3.53C182.84 3.30 182.80 3.29 182.53 3.29C182.31 3.29 182.29 3.32 182.28 3.53C182.28 3.61 182.27 3.78 182.22 3.78C182.17 3.78 182.08 3.74 182.01 3.68C181.22 3.14 180.60 3.08 180.10 3.08C178.57 3.08 177.06 4.17 177.06 5.77Z"></path></g></svg>